<svg xmlns="http://www.w3.org/2000/svg" viewBox="0 0 1024 1024" role="img" aria-labelledby="title desc">
  <title id="title">Oxide Field</title>
  <desc id="desc">Layered resonance lines in oxidized green and copper tones.</desc>
  <defs>
    <linearGradient id="bg" x1="116" y1="92" x2="904" y2="926" gradientUnits="userSpaceOnUse">
      <stop stop-color="#26302D"/>
      <stop offset="0.6" stop-color="#111715"/>
      <stop offset="1" stop-color="#050706"/>
    </linearGradient>
    <linearGradient id="field" x1="230" y1="236" x2="800" y2="790" gradientUnits="userSpaceOnUse">
      <stop stop-color="#F0E4CB"/>
      <stop offset="0.48" stop-color="#B98255"/>
      <stop offset="1" stop-color="#3FD28D"/>
    </linearGradient>
    <filter id="shadow" x="-20%" y="-20%" width="140%" height="140%">
      <feDropShadow dx="0" dy="20" stdDeviation="25" flood-color="#000000" flood-opacity="0.52"/>
    </filter>
  </defs>
  <rect width="1024" height="1024" rx="226" fill="url(#bg)"/>
  <g filter="url(#shadow)" fill="none" stroke="url(#field)" stroke-linecap="round">
    <path d="M270 626C365 720 508 754 638 708C746 670 806 584 790 490" stroke-width="36" opacity="0.32"/>
    <path d="M318 538C390 606 498 630 598 596C684 567 732 500 720 432" stroke-width="42" opacity="0.58"/>
    <path d="M374 456C423 498 494 512 560 488C614 468 644 430 638 386" stroke-width="46" opacity="0.96"/>
  </g>
  <circle cx="388" cy="642" r="34" fill="#F0E4CB"/>
  <circle cx="512" cy="512" r="14" fill="#3FD28D"/>
</svg>
